<?xml version="1.0" encoding="UTF-8" standalone="no"?>
<!DOCTYPE svg PUBLIC "-//W3C//DTD SVG 1.1//EN"
 "http://www.w3.org/Graphics/SVG/1.1/DTD/svg11.dtd">
<!-- Generated by graphviz version 2.44.1 (20200629.0846)
 -->
<!-- Pages: 1 -->
<svg width="1837pt" height="869pt"
 viewBox="0.00 0.00 1837.40 869.40" xmlns="http://www.w3.org/2000/svg" xmlns:xlink="http://www.w3.org/1999/xlink">
<g id="graph0" class="graph" transform="scale(1 1) rotate(0) translate(7.2 862.2)">
<polygon fill="white" stroke="transparent" points="-7.2,7.2 -7.2,-862.2 1830.2,-862.2 1830.2,7.2 -7.2,7.2"/>
<!-- 0 -->
<g id="node1" class="node">
<title>0</title>
<ellipse fill="none" stroke="black" cx="1084" cy="-837" rx="27" ry="18"/>
<text text-anchor="middle" x="1084" y="-833.3" font-family="Helvetica,sans-Serif" font-size="14.00">0</text>
</g>
<!-- 0&#45;&gt;0 -->
<g id="edge1" class="edge">
<title>0&#45;&gt;0</title>
<path fill="none" stroke="#ff0000" stroke-opacity="0.023529" d="M1107.01,-846.7C1123.54,-849.86 1140,-846.63 1140,-837 1140,-829.4 1129.75,-825.79 1117.31,-826.15"/>
<polygon fill="#ff0000" fill-opacity="0.023529" stroke="#ff0000" stroke-opacity="0.023529" points="1116.56,-822.71 1107.01,-827.3 1117.34,-829.67 1116.56,-822.71"/>
<text text-anchor="middle" x="1155" y="-835.1" font-family="Helvetica,sans-Serif" font-size="8.00" fill="#f00000" fill-opacity="0.023529"> 0.0000 </text>
</g>
<!-- 1 -->
<g id="node2" class="node">
<title>1</title>
<ellipse fill="none" stroke="black" cx="980" cy="-720" rx="27" ry="18"/>
<text text-anchor="middle" x="980" y="-716.3" font-family="Helvetica,sans-Serif" font-size="14.00">1</text>
</g>
<!-- 0&#45;&gt;1 -->
<g id="edge2" class="edge">
<title>0&#45;&gt;1</title>
<path fill="none" stroke="#ff0000" stroke-opacity="0.023529" d="M1070.4,-820.97C1052.57,-801.25 1021.14,-766.49 1000.43,-743.6"/>
<polygon fill="#ff0000" fill-opacity="0.023529" stroke="#ff0000" stroke-opacity="0.023529" points="1002.9,-741.11 993.6,-736.04 997.71,-745.8 1002.9,-741.11"/>
<text text-anchor="middle" x="1050" y="-776.6" font-family="Helvetica,sans-Serif" font-size="8.00" fill="#f00000" fill-opacity="0.023529"> 0.0000 </text>
</g>
<!-- 2 -->
<g id="node3" class="node">
<title>2</title>
<ellipse fill="none" stroke="black" cx="934" cy="-18" rx="27" ry="18"/>
<text text-anchor="middle" x="934" y="-14.3" font-family="Helvetica,sans-Serif" font-size="14.00">2</text>
</g>
<!-- 0&#45;&gt;2 -->
<g id="edge3" class="edge">
<title>0&#45;&gt;2</title>
<path fill="none" stroke="#ff0000" stroke-opacity="0.023529" d="M1110.91,-834.86C1205.9,-830.6 1525.07,-814.23 1622,-783 1674.31,-766.15 1729,-775.96 1729,-721 1729,-721 1729,-721 1729,-134 1729,-56.38 1127.73,-26.79 970.99,-20.4"/>
<polygon fill="#ff0000" fill-opacity="0.023529" stroke="#ff0000" stroke-opacity="0.023529" points="971.04,-16.89 960.91,-19.99 970.76,-23.89 971.04,-16.89"/>
<text text-anchor="middle" x="1744" y="-425.6" font-family="Helvetica,sans-Serif" font-size="8.00" fill="#f00000" fill-opacity="0.023529"> 0.0000 </text>
</g>
<!-- 3 -->
<g id="node4" class="node">
<title>3</title>
<ellipse fill="none" stroke="black" cx="785" cy="-135" rx="27" ry="18"/>
<text text-anchor="middle" x="785" y="-131.3" font-family="Helvetica,sans-Serif" font-size="14.00">3</text>
</g>
<!-- 0&#45;&gt;3 -->
<g id="edge4" class="edge">
<title>0&#45;&gt;3</title>
<path fill="none" stroke="#ff0000" stroke-opacity="0.023529" d="M1111.16,-836.39C1224.63,-837.31 1655,-833.37 1655,-721 1655,-721 1655,-721 1655,-485 1655,-423.33 1660.53,-396.59 1619,-351 1459.35,-175.74 1340.01,-246.75 1108,-198 1091.01,-194.43 1086.98,-192.59 1070,-189 980.91,-170.18 875.38,-151.49 821.16,-142.14"/>
<polygon fill="#ff0000" fill-opacity="0.023529" stroke="#ff0000" stroke-opacity="0.023529" points="821.47,-138.64 811.02,-140.4 820.28,-145.54 821.47,-138.64"/>
<text text-anchor="middle" x="1670" y="-484.1" font-family="Helvetica,sans-Serif" font-size="8.00" fill="#f00000" fill-opacity="0.023529"> 0.0000 </text>
</g>
<!-- 4 -->
<g id="node5" class="node">
<title>4</title>
<ellipse fill="none" stroke="black" cx="936" cy="-252" rx="27" ry="18"/>
<text text-anchor="middle" x="936" y="-248.3" font-family="Helvetica,sans-Serif" font-size="14.00">4</text>
</g>
<!-- 0&#45;&gt;4 -->
<g id="edge5" class="edge">
<title>0&#45;&gt;4</title>
<path fill="none" stroke="#ff0000" stroke-opacity="0.023529" d="M1100.35,-822.47C1137.29,-791.02 1227.73,-708.96 1276,-621 1333.86,-515.57 1353.24,-455.67 1294,-351 1278.1,-322.91 1266.45,-319.2 1237,-306 1236.24,-305.66 1051.6,-273.27 971.92,-259.3"/>
<polygon fill="#ff0000" fill-opacity="0.023529" stroke="#ff0000" stroke-opacity="0.023529" points="972.3,-255.81 961.85,-257.53 971.09,-262.7 972.3,-255.81"/>
<text text-anchor="middle" x="1329" y="-542.6" font-family="Helvetica,sans-Serif" font-size="8.00" fill="#f00000" fill-opacity="0.023529"> 0.0000 </text>
</g>
<!-- 5 -->
<g id="node6" class="node">
<title>5</title>
<ellipse fill="none" stroke="black" cx="978" cy="-369" rx="27" ry="18"/>
<text text-anchor="middle" x="978" y="-365.3" font-family="Helvetica,sans-Serif" font-size="14.00">5</text>
</g>
<!-- 0&#45;&gt;5 -->
<g id="edge6" class="edge">
<title>0&#45;&gt;5</title>
<path fill="none" stroke="#ff0000" stroke-opacity="0.023529" d="M1083,-818.97C1081.32,-793.41 1077.37,-743.69 1070,-702 1047.75,-576.11 1040.17,-544.37 1000,-423 997.03,-414.03 993.24,-404.43 989.65,-395.89"/>
<polygon fill="#ff0000" fill-opacity="0.023529" stroke="#ff0000" stroke-opacity="0.023529" points="992.75,-394.26 985.58,-386.47 986.33,-397.04 992.75,-394.26"/>
<text text-anchor="middle" x="1069" y="-601.1" font-family="Helvetica,sans-Serif" font-size="8.00" fill="#f00000" fill-opacity="0.023529"> 0.0000 </text>
</g>
<!-- 6 -->
<g id="node7" class="node">
<title>6</title>
<ellipse fill="none" stroke="black" cx="521" cy="-486" rx="27" ry="18"/>
<text text-anchor="middle" x="521" y="-482.3" font-family="Helvetica,sans-Serif" font-size="14.00">6</text>
</g>
<!-- 0&#45;&gt;6 -->
<g id="edge7" class="edge">
<title>0&#45;&gt;6</title>
<path fill="none" stroke="#ff0000" stroke-opacity="0.023529" d="M1057.04,-835.96C923.15,-835.52 333.57,-830.87 269,-783 182.2,-718.64 180.96,-612.6 261,-540 293.32,-510.68 420.2,-495.73 483.98,-489.94"/>
<polygon fill="#ff0000" fill-opacity="0.023529" stroke="#ff0000" stroke-opacity="0.023529" points="484.36,-493.42 494.02,-489.06 483.75,-486.45 484.36,-493.42"/>
<text text-anchor="middle" x="218" y="-659.6" font-family="Helvetica,sans-Serif" font-size="8.00" fill="#f00000" fill-opacity="0.023529"> 0.0000 </text>
</g>
<!-- 7 -->
<g id="node8" class="node">
<title>7</title>
<ellipse fill="none" stroke="black" cx="530" cy="-603" rx="27" ry="18"/>
<text text-anchor="middle" x="530" y="-599.3" font-family="Helvetica,sans-Serif" font-size="14.00">7</text>
</g>
<!-- 0&#45;&gt;7 -->
<g id="edge8" class="edge">
<title>0&#45;&gt;7</title>
<path fill="none" stroke="#ff0000" stroke-opacity="0.023529" d="M1056.78,-836.04C954.32,-835.83 592.44,-831.58 490,-783 452.98,-765.45 431.79,-740.42 446,-702 457.81,-670.09 485.16,-641.55 505.46,-623.62"/>
<polygon fill="#ff0000" fill-opacity="0.023529" stroke="#ff0000" stroke-opacity="0.023529" points="507.81,-626.22 513.12,-617.05 503.25,-620.9 507.81,-626.22"/>
<text text-anchor="middle" x="461" y="-718.1" font-family="Helvetica,sans-Serif" font-size="8.00" fill="#f00000" fill-opacity="0.023529"> 0.0000 </text>
</g>
<!-- 1&#45;&gt;0 -->
<g id="edge9" class="edge">
<title>1&#45;&gt;0</title>
<path fill="none" stroke="#ff0000" stroke-opacity="0.023529" d="M979.25,-738.01C979.49,-751.37 981.74,-769.87 991,-783 1005.27,-803.23 1029.86,-816.76 1050.18,-825.08"/>
<polygon fill="#ff0000" fill-opacity="0.023529" stroke="#ff0000" stroke-opacity="0.023529" points="1049.16,-828.43 1059.75,-828.75 1051.67,-821.9 1049.16,-828.43"/>
<text text-anchor="middle" x="1006" y="-776.6" font-family="Helvetica,sans-Serif" font-size="8.00" fill="#f00000" fill-opacity="0.023529"> 0.0000 </text>
</g>
<!-- 1&#45;&gt;1 -->
<g id="edge10" class="edge">
<title>1&#45;&gt;1</title>
<path fill="none" stroke="#ff0000" stroke-opacity="0.023529" d="M1003.01,-729.7C1019.54,-732.86 1036,-729.63 1036,-720 1036,-712.4 1025.75,-708.79 1013.31,-709.15"/>
<polygon fill="#ff0000" fill-opacity="0.023529" stroke="#ff0000" stroke-opacity="0.023529" points="1012.56,-705.71 1003.01,-710.3 1013.34,-712.67 1012.56,-705.71"/>
<text text-anchor="middle" x="1051" y="-718.1" font-family="Helvetica,sans-Serif" font-size="8.00" fill="#f00000" fill-opacity="0.023529"> 0.0000 </text>
</g>
<!-- 1&#45;&gt;2 -->
<g id="edge11" class="edge">
<title>1&#45;&gt;2</title>
<path fill="none" stroke="#ff0000" stroke-opacity="0.023529" d="M1007.06,-717.58C1069.77,-713.78 1229.52,-701.15 1358,-666 1408.16,-652.28 1426.52,-654.84 1466,-621 1487.93,-602.21 1582,-452.64 1582,-428.5 1582,-428.5 1582,-428.5 1582,-134 1582,-71.5 1108.64,-31.83 971.07,-21.62"/>
<polygon fill="#ff0000" fill-opacity="0.023529" stroke="#ff0000" stroke-opacity="0.023529" points="971.25,-18.12 961.02,-20.88 970.74,-25.1 971.25,-18.12"/>
<text text-anchor="middle" x="1597" y="-367.1" font-family="Helvetica,sans-Serif" font-size="8.00" fill="#f00000" fill-opacity="0.023529"> 0.0000 </text>
</g>
<!-- 1&#45;&gt;3 -->
<g id="edge12" class="edge">
<title>1&#45;&gt;3</title>
<path fill="none" stroke="#ff0000" stroke-opacity="0.023529" d="M1007.11,-719.11C1066.87,-718.46 1213.48,-711.9 1325,-666 1406.8,-632.34 1445.17,-627.47 1486,-549 1526.72,-470.74 1492.94,-436.7 1472,-351 1467.09,-330.89 1474.58,-320.7 1460,-306 1442.75,-288.61 1058.79,-194.79 1035,-189 959.09,-170.52 869.33,-152.39 820.69,-142.87"/>
<polygon fill="#ff0000" fill-opacity="0.023529" stroke="#ff0000" stroke-opacity="0.023529" points="821.15,-139.39 810.67,-140.92 819.81,-146.26 821.15,-139.39"/>
<text text-anchor="middle" x="1511" y="-425.6" font-family="Helvetica,sans-Serif" font-size="8.00" fill="#f00000" fill-opacity="0.023529"> 0.0000 </text>
</g>
<!-- 1&#45;&gt;4 -->
<g id="edge13" class="edge">
<title>1&#45;&gt;4</title>
<path fill="none" stroke="#ff0000" stroke-opacity="0.062745" d="M1006.43,-716C1078.31,-706.21 1272,-668.45 1272,-545.5 1272,-545.5 1272,-545.5 1272,-368 1272,-327.75 1241.81,-324.37 1206,-306 1195.59,-300.66 1043.06,-272.47 971.97,-259.52"/>
<polygon fill="#ff0000" fill-opacity="0.062745" stroke="#ff0000" stroke-opacity="0.062745" points="972.57,-256.07 962.1,-257.72 971.31,-262.95 972.57,-256.07"/>
<text text-anchor="middle" x="1287" y="-484.1" font-family="Helvetica,sans-Serif" font-size="8.00" fill="#f00000" fill-opacity="0.062745"> 1.0000 </text>
</g>
<!-- 1&#45;&gt;5 -->
<g id="edge14" class="edge">
<title>1&#45;&gt;5</title>
<path fill="none" stroke="#ff0000" stroke-opacity="0.023529" d="M971.82,-702.54C966.86,-692.21 960.62,-678.51 956,-666 937.23,-615.21 929.63,-602.61 922,-549 921.44,-545.04 921.37,-543.95 922,-540 926.53,-511.79 953.45,-436.37 968.26,-396.14"/>
<polygon fill="#ff0000" fill-opacity="0.023529" stroke="#ff0000" stroke-opacity="0.023529" points="971.55,-397.31 971.74,-386.71 964.99,-394.88 971.55,-397.31"/>
<text text-anchor="middle" x="937" y="-542.6" font-family="Helvetica,sans-Serif" font-size="8.00" fill="#f00000" fill-opacity="0.023529"> 0.0000 </text>
</g>
<!-- 1&#45;&gt;6 -->
<g id="edge15" class="edge">
<title>1&#45;&gt;6</title>
<path fill="none" stroke="#ff0000" stroke-opacity="0.023529" d="M960.64,-707.15C943.67,-696.64 918.42,-680.71 897,-666 819.17,-612.57 811.25,-580.55 726,-540 670.3,-513.51 599.56,-498.97 557.41,-492.11"/>
<polygon fill="#ff0000" fill-opacity="0.023529" stroke="#ff0000" stroke-opacity="0.023529" points="557.76,-488.62 547.34,-490.52 556.67,-495.53 557.76,-488.62"/>
<text text-anchor="middle" x="853" y="-601.1" font-family="Helvetica,sans-Serif" font-size="8.00" fill="#f00000" fill-opacity="0.023529"> 0.0000 </text>
</g>
<!-- 1&#45;&gt;7 -->
<g id="edge16" class="edge">
<title>1&#45;&gt;7</title>
<path fill="none" stroke="#ff0000" stroke-opacity="0.023529" d="M953.1,-717.2C897.04,-712.87 764.12,-699.65 658,-666 622.15,-654.63 583.66,-634.85 558.35,-620.68"/>
<polygon fill="#ff0000" fill-opacity="0.023529" stroke="#ff0000" stroke-opacity="0.023529" points="560.08,-617.64 549.65,-615.75 556.62,-623.73 560.08,-617.64"/>
<text text-anchor="middle" x="673" y="-659.6" font-family="Helvetica,sans-Serif" font-size="8.00" fill="#f00000" fill-opacity="0.023529"> 0.0000 </text>
</g>
<!-- 2&#45;&gt;0 -->
<g id="edge17" class="edge">
<title>2&#45;&gt;0</title>
<path fill="none" stroke="#ff0000" stroke-opacity="0.023529" d="M961.13,-19.71C1107.14,-23.86 1793,-47.95 1793,-134 1793,-721 1793,-721 1793,-721 1793,-785.41 1724.14,-766.02 1662,-783 1559.24,-811.08 1231.96,-828.93 1121.12,-834.29"/>
<polygon fill="#ff0000" fill-opacity="0.023529" stroke="#ff0000" stroke-opacity="0.023529" points="1120.9,-830.8 1111.08,-834.77 1121.23,-837.79 1120.9,-830.8"/>
<text text-anchor="middle" x="1808" y="-425.6" font-family="Helvetica,sans-Serif" font-size="8.00" fill="#f00000" fill-opacity="0.023529"> 0.0000 </text>
</g>
<!-- 2&#45;&gt;1 -->
<g id="edge18" class="edge">
<title>2&#45;&gt;1</title>
<path fill="none" stroke="#ff0000" stroke-opacity="0.023529" d="M907.04,-19.44C784.98,-21.63 283.5,-32.9 132,-72 69.24,-88.2 0,-69.18 0,-134 0,-311.5 0,-311.5 0,-311.5 0,-612.86 282.66,-606.08 578,-666 710.88,-692.96 871.38,-709.35 942.71,-715.82"/>
<polygon fill="#ff0000" fill-opacity="0.023529" stroke="#ff0000" stroke-opacity="0.023529" points="942.7,-719.33 952.97,-716.74 943.32,-712.36 942.7,-719.33"/>
<text text-anchor="middle" x="22" y="-367.1" font-family="Helvetica,sans-Serif" font-size="8.00" fill="#f00000" fill-opacity="0.023529"> 0.0000 </text>
</g>
<!-- 2&#45;&gt;2 -->
<g id="edge19" class="edge">
<title>2&#45;&gt;2</title>
<path fill="none" stroke="#ff0000" stroke-opacity="0.023529" d="M957.01,-27.7C973.54,-30.86 990,-27.63 990,-18 990,-10.4 979.75,-6.79 967.31,-7.15"/>
<polygon fill="#ff0000" fill-opacity="0.023529" stroke="#ff0000" stroke-opacity="0.023529" points="966.56,-3.71 957.01,-8.3 967.34,-10.67 966.56,-3.71"/>
<text text-anchor="middle" x="1005" y="-16.1" font-family="Helvetica,sans-Serif" font-size="8.00" fill="#f00000" fill-opacity="0.023529"> 0.0000 </text>
</g>
<!-- 2&#45;&gt;3 -->
<g id="edge20" class="edge">
<title>2&#45;&gt;3</title>
<path fill="none" stroke="#ff0000" stroke-opacity="0.023529" d="M916.65,-32.39C890.36,-52.68 840.3,-91.32 810.06,-114.66"/>
<polygon fill="#ff0000" fill-opacity="0.023529" stroke="#ff0000" stroke-opacity="0.023529" points="807.87,-111.93 802.09,-120.81 812.15,-117.47 807.87,-111.93"/>
<text text-anchor="middle" x="878" y="-74.6" font-family="Helvetica,sans-Serif" font-size="8.00" fill="#f00000" fill-opacity="0.023529"> 0.0000 </text>
</g>
<!-- 2&#45;&gt;4 -->
<g id="edge21" class="edge">
<title>2&#45;&gt;4</title>
<path fill="none" stroke="#ff0000" stroke-opacity="0.023529" d="M934.15,-36.08C934.49,-76 935.35,-175.63 935.77,-223.91"/>
<polygon fill="#ff0000" fill-opacity="0.023529" stroke="#ff0000" stroke-opacity="0.023529" points="932.27,-223.97 935.85,-233.94 939.27,-223.91 932.27,-223.97"/>
<text text-anchor="middle" x="950" y="-133.1" font-family="Helvetica,sans-Serif" font-size="8.00" fill="#f00000" fill-opacity="0.023529"> 0.0000 </text>
</g>
<!-- 2&#45;&gt;5 -->
<g id="edge22" class="edge">
<title>2&#45;&gt;5</title>
<path fill="none" stroke="#ff0000" stroke-opacity="0.023529" d="M949.44,-32.78C967.79,-50.28 997.51,-82.37 1010,-117 1039.88,-199.83 1052.57,-234.45 1017,-315 1012.24,-325.77 1005,-336.46 998.03,-345.39"/>
<polygon fill="#ff0000" fill-opacity="0.023529" stroke="#ff0000" stroke-opacity="0.023529" points="995.15,-343.39 991.54,-353.35 1000.57,-347.81 995.15,-343.39"/>
<text text-anchor="middle" x="1050" y="-191.6" font-family="Helvetica,sans-Serif" font-size="8.00" fill="#f00000" fill-opacity="0.023529"> 0.0000 </text>
</g>
<!-- 2&#45;&gt;6 -->
<g id="edge23" class="edge">
<title>2&#45;&gt;6</title>
<path fill="none" stroke="#ff0000" stroke-opacity="0.023529" d="M907.58,-22.36C828.36,-34.05 593.04,-80.99 507,-234 466.15,-306.66 494.04,-410.6 510.85,-458.72"/>
<polygon fill="#ff0000" fill-opacity="0.023529" stroke="#ff0000" stroke-opacity="0.023529" points="507.64,-460.15 514.33,-468.37 514.23,-457.78 507.64,-460.15"/>
<text text-anchor="middle" x="522" y="-250.1" font-family="Helvetica,sans-Serif" font-size="8.00" fill="#f00000" fill-opacity="0.023529"> 0.0000 </text>
</g>
<!-- 2&#45;&gt;7 -->
<g id="edge24" class="edge">
<title>2&#45;&gt;7</title>
<path fill="none" stroke="#ff0000" stroke-opacity="0.023529" d="M907,-19.08C788.12,-19.69 310.97,-25.07 170,-72 121.81,-88.04 74,-83.21 74,-134 74,-311.5 74,-311.5 74,-311.5 74,-425.35 80,-479.27 170,-549 218.2,-586.34 381.82,-575.21 442,-585 459.39,-587.83 478.6,-591.48 494.63,-594.67"/>
<polygon fill="#ff0000" fill-opacity="0.023529" stroke="#ff0000" stroke-opacity="0.023529" points="494.16,-598.15 504.66,-596.69 495.54,-591.28 494.16,-598.15"/>
<text text-anchor="middle" x="90" y="-308.6" font-family="Helvetica,sans-Serif" font-size="8.00" fill="#f00000" fill-opacity="0.023529"> 0.0000 </text>
</g>
<!-- 3&#45;&gt;0 -->
<g id="edge25" class="edge">
<title>3&#45;&gt;0</title>
<path fill="none" stroke="#ff0000" stroke-opacity="0.023529" d="M757.85,-136.17C689.27,-137.26 504.13,-144.47 358,-189 315.6,-201.92 307.52,-212.06 269,-234 110.63,-324.2 0,-361.25 0,-543.5 0,-721 0,-721 0,-721 0,-828.67 856.62,-835.79 1046.87,-836.04"/>
<polygon fill="#ff0000" fill-opacity="0.023529" stroke="#ff0000" stroke-opacity="0.023529" points="1046.93,-839.54 1056.93,-836.05 1046.94,-832.54 1046.93,-839.54"/>
<text text-anchor="middle" x="23" y="-484.1" font-family="Helvetica,sans-Serif" font-size="8.00" fill="#f00000" fill-opacity="0.023529"> 0.0000 </text>
</g>
<!-- 3&#45;&gt;1 -->
<g id="edge26" class="edge">
<title>3&#45;&gt;1</title>
<path fill="none" stroke="#ff0000" stroke-opacity="0.188235" d="M808.91,-143.37C904.02,-172.78 1252.52,-281.25 1298,-306 1326.04,-321.26 1337.32,-323.77 1354,-351 1400.72,-427.27 1432.86,-470.5 1390,-549 1315.39,-685.67 1103.11,-712.5 1016.98,-717.74"/>
<polygon fill="#ff0000" fill-opacity="0.188235" stroke="#ff0000" stroke-opacity="0.188235" points="1016.68,-714.25 1006.89,-718.29 1017.06,-721.24 1016.68,-714.25"/>
<text text-anchor="middle" x="1414" y="-425.6" font-family="Helvetica,sans-Serif" font-size="8.00" fill="#f00000" fill-opacity="0.188235"> 0.1667 </text>
</g>
<!-- 3&#45;&gt;2 -->
<g id="edge27" class="edge">
<title>3&#45;&gt;2</title>
<path fill="none" stroke="#ff0000" stroke-opacity="0.023529" d="M790.44,-117.36C795.64,-103.67 804.68,-84.54 818,-72 840.96,-50.39 874.26,-36.43 899.3,-28.28"/>
<polygon fill="#ff0000" fill-opacity="0.023529" stroke="#ff0000" stroke-opacity="0.023529" points="900.61,-31.54 909.13,-25.25 898.54,-24.85 900.61,-31.54"/>
<text text-anchor="middle" x="833" y="-74.6" font-family="Helvetica,sans-Serif" font-size="8.00" fill="#f00000" fill-opacity="0.023529"> 0.0000 </text>
</g>
<!-- 3&#45;&gt;3 -->
<g id="edge28" class="edge">
<title>3&#45;&gt;3</title>
<path fill="none" stroke="#ff0000" stroke-opacity="0.188235" d="M808.01,-144.7C824.54,-147.86 841,-144.63 841,-135 841,-127.4 830.75,-123.79 818.31,-124.15"/>
<polygon fill="#ff0000" fill-opacity="0.188235" stroke="#ff0000" stroke-opacity="0.188235" points="817.56,-120.71 808.01,-125.3 818.34,-127.67 817.56,-120.71"/>
<text text-anchor="middle" x="856" y="-133.1" font-family="Helvetica,sans-Serif" font-size="8.00" fill="#f00000" fill-opacity="0.188235"> 0.1667 </text>
</g>
<!-- 3&#45;&gt;4 -->
<g id="edge29" class="edge">
<title>3&#45;&gt;4</title>
<path fill="none" stroke="#ff0000" stroke-opacity="0.188235" d="M792.77,-152.54C799.85,-166.17 811.42,-185.27 826,-198 848.36,-217.52 879.16,-231.54 902.48,-240.24"/>
<polygon fill="#ff0000" fill-opacity="0.188235" stroke="#ff0000" stroke-opacity="0.188235" points="901.38,-243.56 911.97,-243.64 903.74,-236.97 901.38,-243.56"/>
<text text-anchor="middle" x="841" y="-191.6" font-family="Helvetica,sans-Serif" font-size="8.00" fill="#f00000" fill-opacity="0.188235"> 0.1667 </text>
</g>
<!-- 3&#45;&gt;5 -->
<g id="edge30" class="edge">
<title>3&#45;&gt;5</title>
<path fill="none" stroke="#ff0000" stroke-opacity="0.188235" d="M769.66,-150.47C737.06,-182.97 667.22,-262.93 710,-315 738.79,-350.05 874.16,-362.31 940.78,-366.27"/>
<polygon fill="#ff0000" fill-opacity="0.188235" stroke="#ff0000" stroke-opacity="0.188235" points="940.68,-369.77 950.86,-366.84 941.07,-362.78 940.68,-369.77"/>
<text text-anchor="middle" x="722" y="-250.1" font-family="Helvetica,sans-Serif" font-size="8.00" fill="#f00000" fill-opacity="0.188235"> 0.1667 </text>
</g>
<!-- 3&#45;&gt;6 -->
<g id="edge31" class="edge">
<title>3&#45;&gt;6</title>
<path fill="none" stroke="#ff0000" stroke-opacity="0.349020" d="M758.03,-136.4C717.89,-138.42 642.2,-147.87 596,-189 517.35,-259.02 515.6,-398.59 518.76,-457.62"/>
<polygon fill="#ff0000" fill-opacity="0.349020" stroke="#ff0000" stroke-opacity="0.349020" points="515.27,-457.91 519.39,-467.67 522.26,-457.47 515.27,-457.91"/>
<text text-anchor="middle" x="546" y="-308.6" font-family="Helvetica,sans-Serif" font-size="8.00" fill="#f00000" fill-opacity="0.349020"> 0.3333 </text>
</g>
<!-- 3&#45;&gt;7 -->
<g id="edge32" class="edge">
<title>3&#45;&gt;7</title>
<path fill="none" stroke="#ff0000" stroke-opacity="0.023529" d="M758.12,-137.35C665.71,-142.57 363.37,-164.77 302,-234 208.55,-339.4 235.85,-450.97 337,-549 348.43,-560.08 442.42,-582.46 494.9,-594.28"/>
<polygon fill="#ff0000" fill-opacity="0.023529" stroke="#ff0000" stroke-opacity="0.023529" points="494.28,-597.73 504.8,-596.5 495.81,-590.9 494.28,-597.73"/>
<text text-anchor="middle" x="261" y="-367.1" font-family="Helvetica,sans-Serif" font-size="8.00" fill="#f00000" fill-opacity="0.023529"> 0.0000 </text>
</g>
<!-- 4&#45;&gt;0 -->
<g id="edge33" class="edge">
<title>4&#45;&gt;0</title>
<path fill="none" stroke="#ff0000" stroke-opacity="0.023529" d="M961.91,-257.7C981.44,-261.2 1008.87,-266.04 1033,-270 1137.27,-287.12 1171.28,-263.45 1268,-306 1325.43,-331.27 1335.28,-361.36 1347,-423 1357.46,-478.04 1366.18,-495.07 1351,-549 1323.72,-645.95 1294.63,-664.29 1226,-738 1192.89,-773.56 1144.72,-803.41 1113.88,-820.5"/>
<polygon fill="#ff0000" fill-opacity="0.023529" stroke="#ff0000" stroke-opacity="0.023529" points="1112.01,-817.53 1104.9,-825.39 1115.35,-823.68 1112.01,-817.53"/>
<text text-anchor="middle" x="1368" y="-542.6" font-family="Helvetica,sans-Serif" font-size="8.00" fill="#f00000" fill-opacity="0.023529"> 0.0000 </text>
</g>
<!-- 4&#45;&gt;1 -->
<g id="edge34" class="edge">
<title>4&#45;&gt;1</title>
<path fill="none" stroke="#ff0000" stroke-opacity="0.023529" d="M957.81,-262.85C1002.12,-284.33 1101.13,-340.15 1133,-423 1154.33,-478.45 1042.94,-635.47 998.07,-695.38"/>
<polygon fill="#ff0000" fill-opacity="0.023529" stroke="#ff0000" stroke-opacity="0.023529" points="995.18,-693.39 991.96,-703.49 1000.77,-697.61 995.18,-693.39"/>
<text text-anchor="middle" x="1146" y="-484.1" font-family="Helvetica,sans-Serif" font-size="8.00" fill="#f00000" fill-opacity="0.023529"> 0.0000 </text>
</g>
<!-- 4&#45;&gt;2 -->
<g id="edge35" class="edge">
<title>4&#45;&gt;2</title>
<path fill="none" stroke="#ff0000" stroke-opacity="0.023529" d="M945.15,-234.71C958.11,-209.71 979.45,-160.2 972,-117 967.57,-91.31 956.25,-63.77 947.11,-44.45"/>
<polygon fill="#ff0000" fill-opacity="0.023529" stroke="#ff0000" stroke-opacity="0.023529" points="950.23,-42.87 942.71,-35.41 943.94,-45.93 950.23,-42.87"/>
<text text-anchor="middle" x="988" y="-133.1" font-family="Helvetica,sans-Serif" font-size="8.00" fill="#f00000" fill-opacity="0.023529"> 0.0000 </text>
</g>
<!-- 4&#45;&gt;3 -->
<g id="edge36" class="edge">
<title>4&#45;&gt;3</title>
<path fill="none" stroke="#ff0000" stroke-opacity="0.023529" d="M919.69,-237.42C904.25,-224.68 880.32,-205.2 859,-189 843.47,-177.2 825.72,-164.47 811.5,-154.44"/>
<polygon fill="#ff0000" fill-opacity="0.023529" stroke="#ff0000" stroke-opacity="0.023529" points="813.35,-151.45 803.15,-148.57 809.32,-157.18 813.35,-151.45"/>
<text text-anchor="middle" x="884" y="-191.6" font-family="Helvetica,sans-Serif" font-size="8.00" fill="#f00000" fill-opacity="0.023529"> 0.0000 </text>
</g>
<!-- 4&#45;&gt;4 -->
<g id="edge37" class="edge">
<title>4&#45;&gt;4</title>
<path fill="none" stroke="#ff0000" stroke-opacity="0.105882" d="M959.01,-261.7C975.54,-264.86 992,-261.63 992,-252 992,-244.4 981.75,-240.79 969.31,-241.15"/>
<polygon fill="#ff0000" fill-opacity="0.105882" stroke="#ff0000" stroke-opacity="0.105882" points="968.56,-237.71 959.01,-242.3 969.34,-244.67 968.56,-237.71"/>
<text text-anchor="middle" x="1007" y="-250.1" font-family="Helvetica,sans-Serif" font-size="8.00" fill="#f00000" fill-opacity="0.105882"> 0.0857 </text>
</g>
<!-- 4&#45;&gt;5 -->
<g id="edge38" class="edge">
<title>4&#45;&gt;5</title>
<path fill="none" stroke="#ff0000" stroke-opacity="0.486275" d="M951.57,-267.08C961.22,-276.91 972.75,-290.92 978,-306 981.84,-317.02 982.42,-329.82 981.83,-340.91"/>
<polygon fill="#ff0000" fill-opacity="0.486275" stroke="#ff0000" stroke-opacity="0.486275" points="978.34,-340.66 980.96,-350.92 985.31,-341.26 978.34,-340.66"/>
<text text-anchor="middle" x="995" y="-308.6" font-family="Helvetica,sans-Serif" font-size="8.00" fill="#f00000" fill-opacity="0.486275"> 0.4714 </text>
</g>
<!-- 4&#45;&gt;6 -->
<g id="edge39" class="edge">
<title>4&#45;&gt;6</title>
<path fill="none" stroke="#ff0000" stroke-opacity="0.372549" d="M914.69,-263.39C909.61,-265.7 904.16,-268.05 899,-270 847.33,-289.58 830.88,-284.46 780,-306 683.77,-346.73 586.82,-426.46 543.9,-464.22"/>
<polygon fill="#ff0000" fill-opacity="0.372549" stroke="#ff0000" stroke-opacity="0.372549" points="541.44,-461.72 536.29,-470.97 546.09,-466.95 541.44,-461.72"/>
<text text-anchor="middle" x="707" y="-367.1" font-family="Helvetica,sans-Serif" font-size="8.00" fill="#f00000" fill-opacity="0.372549"> 0.3571 </text>
</g>
<!-- 4&#45;&gt;7 -->
<g id="edge40" class="edge">
<title>4&#45;&gt;7</title>
<path fill="none" stroke="#ff0000" stroke-opacity="0.105882" d="M930.12,-269.77C917.08,-304.68 882.52,-385.74 828,-432 801.02,-454.89 786.74,-448.83 757,-468 708.64,-499.18 705.44,-519.56 656,-549 626.17,-566.76 589.28,-581.53 563.14,-590.93"/>
<polygon fill="#ff0000" fill-opacity="0.105882" stroke="#ff0000" stroke-opacity="0.105882" points="561.96,-587.64 553.69,-594.26 564.29,-594.24 561.96,-587.64"/>
<text text-anchor="middle" x="852" y="-425.6" font-family="Helvetica,sans-Serif" font-size="8.00" fill="#f00000" fill-opacity="0.105882"> 0.0857 </text>
</g>
<!-- 5&#45;&gt;0 -->
<g id="edge41" class="edge">
<title>5&#45;&gt;0</title>
<path fill="none" stroke="#ff0000" stroke-opacity="0.023529" d="M992.3,-384.36C1001.87,-394.52 1014.27,-408.81 1023,-423 1063.93,-489.5 1073.6,-508.88 1091,-585 1110.64,-670.9 1114.62,-695.95 1101,-783 1099.62,-791.82 1097.02,-801.18 1094.26,-809.54"/>
<polygon fill="#ff0000" fill-opacity="0.023529" stroke="#ff0000" stroke-opacity="0.023529" points="1090.9,-808.55 1090.89,-819.14 1097.51,-810.87 1090.9,-808.55"/>
<text text-anchor="middle" x="1113" y="-601.1" font-family="Helvetica,sans-Serif" font-size="8.00" fill="#f00000" fill-opacity="0.023529"> 0.0000 </text>
</g>
<!-- 5&#45;&gt;1 -->
<g id="edge42" class="edge">
<title>5&#45;&gt;1</title>
<path fill="none" stroke="#ff0000" stroke-opacity="0.023529" d="M978.1,-387.41C978.42,-443.96 979.45,-622.79 979.84,-691.63"/>
<polygon fill="#ff0000" fill-opacity="0.023529" stroke="#ff0000" stroke-opacity="0.023529" points="976.34,-691.71 979.9,-701.69 983.34,-691.67 976.34,-691.71"/>
<text text-anchor="middle" x="994" y="-542.6" font-family="Helvetica,sans-Serif" font-size="8.00" fill="#f00000" fill-opacity="0.023529"> 0.0000 </text>
</g>
<!-- 5&#45;&gt;2 -->
<g id="edge43" class="edge">
<title>5&#45;&gt;2</title>
<path fill="none" stroke="#ff0000" stroke-opacity="0.023529" d="M996.77,-355.82C1010.38,-346.17 1028.36,-331.57 1040,-315 1073.21,-267.72 1084.64,-245.38 1072,-189 1059.08,-131.37 1049.86,-114.64 1009,-72 995.48,-57.89 977.72,-45.14 962.87,-35.69"/>
<polygon fill="#ff0000" fill-opacity="0.023529" stroke="#ff0000" stroke-opacity="0.023529" points="964.41,-32.53 954.07,-30.24 960.73,-38.48 964.41,-32.53"/>
<text text-anchor="middle" x="1088" y="-191.6" font-family="Helvetica,sans-Serif" font-size="8.00" fill="#f00000" fill-opacity="0.023529"> 0.0000 </text>
</g>
<!-- 5&#45;&gt;3 -->
<g id="edge44" class="edge">
<title>5&#45;&gt;3</title>
<path fill="none" stroke="#ff0000" stroke-opacity="0.027451" d="M960.22,-355.22C925.78,-329.51 849.84,-267.95 810,-198 803.67,-186.88 798.15,-173.84 793.92,-162.6"/>
<polygon fill="#ff0000" fill-opacity="0.027451" stroke="#ff0000" stroke-opacity="0.027451" points="797.1,-161.1 790.42,-152.88 790.52,-163.47 797.1,-161.1"/>
<text text-anchor="middle" x="877" y="-250.1" font-family="Helvetica,sans-Serif" font-size="8.00" fill="#f00000" fill-opacity="0.027451"> 0.0041 </text>
</g>
<!-- 5&#45;&gt;4 -->
<g id="edge45" class="edge">
<title>5&#45;&gt;4</title>
<path fill="none" stroke="#ff0000" stroke-opacity="0.090196" d="M964.26,-353C955.98,-343.01 946.09,-329.15 941,-315 937.04,-303.99 935.54,-291.19 935.12,-280.09"/>
<polygon fill="#ff0000" fill-opacity="0.090196" stroke="#ff0000" stroke-opacity="0.090196" points="938.62,-280.04 935.01,-270.08 931.62,-280.12 938.62,-280.04"/>
<text text-anchor="middle" x="956" y="-308.6" font-family="Helvetica,sans-Serif" font-size="8.00" fill="#f00000" fill-opacity="0.090196"> 0.0673 </text>
</g>
<!-- 5&#45;&gt;5 -->
<g id="edge46" class="edge">
<title>5&#45;&gt;5</title>
<path fill="none" stroke="#ff0000" stroke-opacity="0.501961" d="M1001.01,-378.7C1017.54,-381.86 1034,-378.63 1034,-369 1034,-361.4 1023.75,-357.79 1011.31,-358.15"/>
<polygon fill="#ff0000" fill-opacity="0.501961" stroke="#ff0000" stroke-opacity="0.501961" points="1010.56,-354.71 1001.01,-359.3 1011.34,-361.67 1010.56,-354.71"/>
<text text-anchor="middle" x="1049" y="-367.1" font-family="Helvetica,sans-Serif" font-size="8.00" fill="#f00000" fill-opacity="0.501961"> 0.4898 </text>
</g>
<!-- 5&#45;&gt;6 -->
<g id="edge47" class="edge">
<title>5&#45;&gt;6</title>
<path fill="none" stroke="#ff0000" stroke-opacity="0.396078" d="M953.72,-377.07C898.12,-393.27 766.18,-431.7 765,-432 691.41,-450.68 604.3,-468.61 556.62,-478.07"/>
<polygon fill="#ff0000" fill-opacity="0.396078" stroke="#ff0000" stroke-opacity="0.396078" points="555.91,-474.64 546.78,-480.01 557.27,-481.51 555.91,-474.64"/>
<text text-anchor="middle" x="806" y="-425.6" font-family="Helvetica,sans-Serif" font-size="8.00" fill="#f00000" fill-opacity="0.396078"> 0.3816 </text>
</g>
<!-- 5&#45;&gt;7 -->
<g id="edge48" class="edge">
<title>5&#45;&gt;7</title>
<path fill="none" stroke="#ff0000" stroke-opacity="0.078431" d="M966.98,-385.6C957.4,-398.66 942.77,-417.44 928,-432 909.51,-450.22 901.38,-450.73 882,-468 844.22,-501.66 846.6,-525.1 802,-549 761.63,-570.64 630.85,-589.41 566.48,-597.61"/>
<polygon fill="#ff0000" fill-opacity="0.078431" stroke="#ff0000" stroke-opacity="0.078431" points="565.85,-594.16 556.37,-598.88 566.73,-601.1 565.85,-594.16"/>
<text text-anchor="middle" x="897" y="-484.1" font-family="Helvetica,sans-Serif" font-size="8.00" fill="#f00000" fill-opacity="0.078431"> 0.0571 </text>
</g>
<!-- 6&#45;&gt;0 -->
<g id="edge49" class="edge">
<title>6&#45;&gt;0</title>
<path fill="none" stroke="#ff0000" stroke-opacity="0.023529" d="M508.09,-502.1C499.7,-512.35 488.91,-526.46 481,-540 452.38,-588.98 441.58,-601.47 430,-657 418.09,-714.14 416.33,-754.04 467,-783 517.34,-811.77 920.93,-829.69 1046.71,-834.61"/>
<polygon fill="#ff0000" fill-opacity="0.023529" stroke="#ff0000" stroke-opacity="0.023529" points="1046.85,-838.12 1056.98,-835.01 1047.13,-831.13 1046.85,-838.12"/>
<text text-anchor="middle" x="445" y="-659.6" font-family="Helvetica,sans-Serif" font-size="8.00" fill="#f00000" fill-opacity="0.023529"> 0.0000 </text>
</g>
<!-- 6&#45;&gt;1 -->
<g id="edge50" class="edge">
<title>6&#45;&gt;1</title>
<path fill="none" stroke="#ff0000" stroke-opacity="0.023529" d="M540.69,-498.7C581.42,-522.73 678.13,-578.93 762,-621 827.21,-653.71 905.67,-687.71 948.42,-705.8"/>
<polygon fill="#ff0000" fill-opacity="0.023529" stroke="#ff0000" stroke-opacity="0.023529" points="947.17,-709.07 957.74,-709.73 949.89,-702.62 947.17,-709.07"/>
<text text-anchor="middle" x="777" y="-601.1" font-family="Helvetica,sans-Serif" font-size="8.00" fill="#f00000" fill-opacity="0.023529"> 0.0000 </text>
</g>
<!-- 6&#45;&gt;2 -->
<g id="edge51" class="edge">
<title>6&#45;&gt;2</title>
<path fill="none" stroke="#ff0000" stroke-opacity="0.023529" d="M510.15,-469.26C483.83,-429.01 421.24,-319.48 456,-234 527.18,-58.94 797.46,-26.42 896.95,-20.38"/>
<polygon fill="#ff0000" fill-opacity="0.023529" stroke="#ff0000" stroke-opacity="0.023529" points="897.34,-23.86 907.13,-19.82 896.95,-16.87 897.34,-23.86"/>
<text text-anchor="middle" x="471" y="-250.1" font-family="Helvetica,sans-Serif" font-size="8.00" fill="#f00000" fill-opacity="0.023529"> 0.0000 </text>
</g>
<!-- 6&#45;&gt;3 -->
<g id="edge52" class="edge">
<title>6&#45;&gt;3</title>
<path fill="none" stroke="#ff0000" stroke-opacity="0.027451" d="M529.91,-468.76C555.93,-422.12 635.58,-285.04 724,-189 735.01,-177.04 748.55,-165.05 760.08,-155.5"/>
<polygon fill="#ff0000" fill-opacity="0.027451" stroke="#ff0000" stroke-opacity="0.027451" points="762.5,-158.05 768.05,-149.02 758.08,-152.62 762.5,-158.05"/>
<text text-anchor="middle" x="646" y="-308.6" font-family="Helvetica,sans-Serif" font-size="8.00" fill="#f00000" fill-opacity="0.027451"> 0.0054 </text>
</g>
<!-- 6&#45;&gt;4 -->
<g id="edge53" class="edge">
<title>6&#45;&gt;4</title>
<path fill="none" stroke="#ff0000" stroke-opacity="0.078431" d="M541.34,-473.64C564.8,-460.72 604.68,-439.3 640,-423 678.74,-405.12 692.94,-409.82 729,-387 773.92,-358.58 772.5,-335.08 817,-306 850.32,-284.23 862.69,-286.31 899,-270 901.04,-269.08 903.15,-268.13 905.27,-267.17"/>
<polygon fill="#ff0000" fill-opacity="0.078431" stroke="#ff0000" stroke-opacity="0.078431" points="906.86,-270.29 914.51,-262.95 903.96,-263.92 906.86,-270.29"/>
<text text-anchor="middle" x="785" y="-367.1" font-family="Helvetica,sans-Serif" font-size="8.00" fill="#f00000" fill-opacity="0.078431"> 0.0568 </text>
</g>
<!-- 6&#45;&gt;5 -->
<g id="edge54" class="edge">
<title>6&#45;&gt;5</title>
<path fill="none" stroke="#ff0000" stroke-opacity="0.533333" d="M545.54,-478.07C580.26,-468.2 645.67,-449.36 701,-432 713.07,-428.21 715.79,-426.32 728,-423 803.39,-402.51 893.34,-385.14 942.16,-376.28"/>
<polygon fill="#ff0000" fill-opacity="0.533333" stroke="#ff0000" stroke-opacity="0.533333" points="943,-379.69 952.22,-374.47 941.76,-372.8 943,-379.69"/>
<text text-anchor="middle" x="743" y="-425.6" font-family="Helvetica,sans-Serif" font-size="8.00" fill="#f00000" fill-opacity="0.533333"> 0.5189 </text>
</g>
<!-- 6&#45;&gt;6 -->
<g id="edge55" class="edge">
<title>6&#45;&gt;6</title>
<path fill="none" stroke="#ff0000" stroke-opacity="0.372549" d="M544.01,-495.7C560.54,-498.86 577,-495.63 577,-486 577,-478.4 566.75,-474.79 554.31,-475.15"/>
<polygon fill="#ff0000" fill-opacity="0.372549" stroke="#ff0000" stroke-opacity="0.372549" points="553.56,-471.71 544.01,-476.3 554.34,-478.67 553.56,-471.71"/>
<text text-anchor="middle" x="592" y="-484.1" font-family="Helvetica,sans-Serif" font-size="8.00" fill="#f00000" fill-opacity="0.372549"> 0.3568 </text>
</g>
<!-- 6&#45;&gt;7 -->
<g id="edge56" class="edge">
<title>6&#45;&gt;7</title>
<path fill="none" stroke="#ff0000" stroke-opacity="0.086275" d="M522.35,-504.25C523.81,-522.85 526.14,-552.72 527.85,-574.55"/>
<polygon fill="#ff0000" fill-opacity="0.086275" stroke="#ff0000" stroke-opacity="0.086275" points="524.36,-574.84 528.63,-584.53 531.34,-574.29 524.36,-574.84"/>
<text text-anchor="middle" x="541" y="-542.6" font-family="Helvetica,sans-Serif" font-size="8.00" fill="#f00000" fill-opacity="0.086275"> 0.0622 </text>
</g>
<!-- 7&#45;&gt;0 -->
<g id="edge57" class="edge">
<title>7&#45;&gt;0</title>
<path fill="none" stroke="#ff0000" stroke-opacity="0.023529" d="M538.81,-620.17C547.2,-634.14 561.03,-653.93 578,-666 731.32,-775.01 959.65,-818.03 1047.63,-831.17"/>
<polygon fill="#ff0000" fill-opacity="0.023529" stroke="#ff0000" stroke-opacity="0.023529" points="1047.25,-834.66 1057.65,-832.63 1048.25,-827.73 1047.25,-834.66"/>
<text text-anchor="middle" x="720" y="-718.1" font-family="Helvetica,sans-Serif" font-size="8.00" fill="#f00000" fill-opacity="0.023529"> 0.0000 </text>
</g>
<!-- 7&#45;&gt;1 -->
<g id="edge58" class="edge">
<title>7&#45;&gt;1</title>
<path fill="none" stroke="#ff0000" stroke-opacity="0.023529" d="M542.44,-619.31C555.23,-633.9 576.56,-655.2 600,-666 660.77,-694 860.2,-710.69 943.22,-716.58"/>
<polygon fill="#ff0000" fill-opacity="0.023529" stroke="#ff0000" stroke-opacity="0.023529" points="943,-720.08 953.21,-717.28 943.48,-713.09 943,-720.08"/>
<text text-anchor="middle" x="615" y="-659.6" font-family="Helvetica,sans-Serif" font-size="8.00" fill="#f00000" fill-opacity="0.023529"> 0.0000 </text>
</g>
<!-- 7&#45;&gt;2 -->
<g id="edge59" class="edge">
<title>7&#45;&gt;2</title>
<path fill="none" stroke="#ff0000" stroke-opacity="0.023529" d="M504.22,-597.13C464.43,-589.23 385.95,-572.14 322,-549 261.81,-527.22 192,-551.01 192,-487 192,-487 192,-487 192,-134 192,-61.84 747.16,-28.47 897.07,-20.78"/>
<polygon fill="#ff0000" fill-opacity="0.023529" stroke="#ff0000" stroke-opacity="0.023529" points="897.34,-24.27 907.15,-20.27 896.99,-17.28 897.34,-24.27"/>
<text text-anchor="middle" x="207" y="-308.6" font-family="Helvetica,sans-Serif" font-size="8.00" fill="#f00000" fill-opacity="0.023529"> 0.0000 </text>
</g>
<!-- 7&#45;&gt;3 -->
<g id="edge60" class="edge">
<title>7&#45;&gt;3</title>
<path fill="none" stroke="#ff0000" stroke-opacity="0.039216" d="M510.8,-590.03C470.45,-563.2 382.36,-494.95 405,-423 444.06,-298.87 468.42,-254.27 581,-189 634.23,-158.14 705.54,-144.95 748.21,-139.54"/>
<polygon fill="#ff0000" fill-opacity="0.039216" stroke="#ff0000" stroke-opacity="0.039216" points="748.65,-143.01 758.16,-138.35 747.82,-136.06 748.65,-143.01"/>
<text text-anchor="middle" x="445" y="-367.1" font-family="Helvetica,sans-Serif" font-size="8.00" fill="#f00000" fill-opacity="0.039216"> 0.0164 </text>
</g>
<!-- 7&#45;&gt;4 -->
<g id="edge61" class="edge">
<title>7&#45;&gt;4</title>
<path fill="none" stroke="#ff0000" stroke-opacity="0.152941" d="M542.94,-587.08C559.16,-568.18 587.55,-534.38 610,-504 635.71,-469.2 628.65,-447.95 664,-423 717.54,-385.2 750.3,-419.88 807,-387 855.31,-358.99 897.21,-307.67 919.33,-277.32"/>
<polygon fill="#ff0000" fill-opacity="0.152941" stroke="#ff0000" stroke-opacity="0.152941" points="922.31,-279.16 925.28,-268.99 916.62,-275.09 922.31,-279.16"/>
<text text-anchor="middle" x="679" y="-425.6" font-family="Helvetica,sans-Serif" font-size="8.00" fill="#f00000" fill-opacity="0.152941"> 0.1311 </text>
</g>
<!-- 7&#45;&gt;5 -->
<g id="edge62" class="edge">
<title>7&#45;&gt;5</title>
<path fill="none" stroke="#ff0000" stroke-opacity="0.407843" d="M555.23,-596.49C588.72,-588.61 649.22,-572.46 697,-549 753.77,-521.12 759.01,-499.24 814,-468 847.55,-448.94 859.69,-451.47 893,-432 914.49,-419.44 937.18,-402.69 953.71,-389.76"/>
<polygon fill="#ff0000" fill-opacity="0.407843" stroke="#ff0000" stroke-opacity="0.407843" points="956.08,-392.35 961.75,-383.4 951.74,-386.86 956.08,-392.35"/>
<text text-anchor="middle" x="829" y="-484.1" font-family="Helvetica,sans-Serif" font-size="8.00" fill="#f00000" fill-opacity="0.407843"> 0.3934 </text>
</g>
<!-- 7&#45;&gt;6 -->
<g id="edge63" class="edge">
<title>7&#45;&gt;6</title>
<path fill="none" stroke="#ff0000" stroke-opacity="0.407843" d="M514.79,-587.85C505.37,-577.99 494.11,-563.97 489,-549 484.27,-535.16 491.12,-520.59 499.67,-509.05"/>
<polygon fill="#ff0000" fill-opacity="0.407843" stroke="#ff0000" stroke-opacity="0.407843" points="502.44,-511.2 506.06,-501.24 497.02,-506.77 502.44,-511.2"/>
<text text-anchor="middle" x="504" y="-542.6" font-family="Helvetica,sans-Serif" font-size="8.00" fill="#f00000" fill-opacity="0.407843"> 0.3934 </text>
</g>
<!-- 7&#45;&gt;7 -->
<g id="edge64" class="edge">
<title>7&#45;&gt;7</title>
<path fill="none" stroke="#ff0000" stroke-opacity="0.086275" d="M553.01,-612.7C569.54,-615.86 586,-612.63 586,-603 586,-595.4 575.75,-591.79 563.31,-592.15"/>
<polygon fill="#ff0000" fill-opacity="0.086275" stroke="#ff0000" stroke-opacity="0.086275" points="562.56,-588.71 553.01,-593.3 563.34,-595.67 562.56,-588.71"/>
<text text-anchor="middle" x="601" y="-601.1" font-family="Helvetica,sans-Serif" font-size="8.00" fill="#f00000" fill-opacity="0.086275"> 0.0656 </text>
</g>
</g>
</svg>
